<svg xmlns="http://www.w3.org/2000/svg" version="1.1" xmlns:xlink="http://www.w3.org/1999/xlink" xmlns:svgjs="http://svgjs.dev/svgjs" viewBox="0 0 1422 800" opacity="0.26"><g fill="none" stroke-width="1.5" stroke="#10b981" stroke-linecap="round"><path d="M1158.12 253.99C1124.47 273.14 1123.11 292.19 1152.94 311.66 1207.52 331.89 1272.21 354.03 1332 379.5 1375.51 407.64 1391.79 441.24 1378.15 481.54 1337.73 525.44 1277.84 576.02 1209.62 631.92 1143.69 686.66 1090.68 740.54 1057.17 788.01 1046.42 822.28 1057.13 840.43 1084.39 837.96 1123.94 816.94 1166.2 778.33 1203.9 729.11 1241.4 668.45 1218.64 703.51 1163.95 816.08 1115.63 902.23 1063.68 972.45 1011.76 1006.19 960.45 994.12 913.82 939.88 873.04 862.11 837.17 793.54 807.68 760.33 783.74 781.43 764.44 853.71 748.98 952.97 735.93 1041.04 725.57 1081.33 715.76 1056.78 705.38 977.3 696.05 882.24 684.98 815.81 671.55 813.37 658.34 879.36 642.28 982.76 623.12 1071.86 603.97 1100.34 582.16 1053.37 558.06 956.63 534.18 857.66 508.47 803.69 481.68 816.85 455.93 888.83 430.25 981.96 405.85 1052.31 384.14 1070.03 365.58 1025.75 351.68 938.61 340.98 804.49 361.32 800.02 391.15 902.88 413.55 961.3 436.98 983.74 457.89 964.41 470.45 908.12 473.57 829.48 463.8 747.3 439.1 675.44 399.8 627.85 347.38 608.09 287.05 615.32 223.46 642.09 163.96 678.32 102.12 735.99 116.26 780.8 186.86 759.75 241.03 731.1 288.45 695.34 318.05 656.43 320.89 613.59 295.45 572.02 244.55 533.73 177.36 494.99 107.04 460.8 48.67 431.6 15.05 402.54 14.47 378.35 48.12 359.19 107.28 340.03 178.09 326.36 244.12 318.1 291 309.98 309.57 307.4 297.72 310.01 258.37 312.18 202.66 318.25 143.59 326.34 75.85 331.36 94.96 299.37 175.46 245 241.99 192.26 306.05 128.14 359.67 57.74 407.64 -35.66 390.99 -94.98 346.65 -37.6 297.59 46.83 246.68 82.72 254.74 -17.5 273.26 -109.26 300.34 -189.94 333.47 -233.16 372 -224.87 412.81 -167.99 453.83 -84.17 496.18 -11.07 536.51 20.75 573.95 -7.75 610.86 -88.89 644.43 -191.17 674.66 -270.56 704.21 -291.14 730.83 -242.83 754.75 -147.67 778.43 -54.7 799.84 -9.65 819 -38.08 838.15 -127.17 854.61 -228.63 868.24 -290.86 881.64 -284.67 891.78 -212.61 898.36 -110.17 904.26 -23.28 906.18 10.43 904.03 -19.02 901.34 -96.27 895.04 -183.06 885.89 -241.31 878.07 -248.38 869.63 -199.58 862.56 -113.92 860.89 -19.06 864.34 53.74 875.35 85.77 895.85 71.98 926.31 23.1 967.23 -40.42 1016.23 -100.65 1072.21 -136.18 1131.54 -138.38 1187.97 -107.21 1237.91 -49.12 1275.56 23.05 1296.55 99.68 1298.36 166.81 1280.1 217.36 1246.43 249.35 1200.94 261.73 1151.49 258.93 1109.67 242.91 1082.11 221.4 1076.38 199.86 1096.71 177.16 1141.1 160.61 1203.69 151.46 1273.57 145.92 1338.43 147.81 1385.17 155.8 1404.42 166.46 1391.48 181.09 1348.39 198.17 1286.15 216.01 1217.28 234.83 1158.12 253.99Q1158.12 253.99 1158.12 253.99" opacity="0.82"></path><path d="M1047.12 462.28C1009.15 492.93 1051.63 506.67 1143.67 503.15 1236.91 498.92 1276.09 480.24 1244.54 458.33 1157.46 457.47 1050.89 484.76 963.59 558.04 917.4 664.25 917.8 781.84 949.48 858.27 1022.75 810.01 1065.36 686.51 1022.14 887.18 976.61 966.31 927.1 896.91 880.69 749.16 832.44 696.96 791.76 807.76 761.11 960.86 720.87 896.69 687.2 791.76 676.49 949.46 657.5 905.39 625.2 763.33 572.14 641.42 501.02 617.11 413.01 685.96 321.57 775.75 249.71 830.44 212.97 809.6 227.24 732.98 282.63 625.42 361.72 526.43 426.32 453.62 435.41 402.7 378.78 374.05 273.71 353.85 169.85 340.64 121.15 321.49 159.12 290.83 260.36 260.19 366.58 219.49 421.16 174.89 399.62 137.29 322.89 110.17 237.28 107.95 180.49 127.64 184.24 176.14 243.36 236.47 337.85 265.87 436.53 242.72 514.54 147.87 569.28 -34.68 531.85 52.34 504.37 131.26 492.78 -57.6 536.13 11.77 579.05 72.91 609.71 -80.17 645.03 -184.8 686.38 -120.81 730.36 38.76 784.51 125.64 850.02 68.99 918.32 -62.3 993.39 -128.64 1065.59 -73.44 1120.23 62.83 1149.8 184.67 1142.45 230.37 1104.62 194.11 1042.29 120.53 979.71 61.56 952.51 35.51 976.25 58.7 1055.5 112.69 1163.58 187.71 1257.75 262.15 1291.13 324.18 1248.37 385.52 1148.36 431.62 1047.12 462.28Q1047.12 462.28 1047.12 462.28" opacity="0.09"></path><path d="M936.12 492.57C899.63 515.56 908.69 547.73 956.08 585.61 1027.9 620.04 1096.59 652.73 1141.73 674.51 1155.24 681.21 1131.26 665.57 1078.67 624.75 1007.52 575.89 932.58 524.44 865.73 494.91 810.78 511.27 773.4 578.03 751.42 683.48 743.06 785.65 742.46 843.5 743.7 822.58 750.12 684.92 732.85 681.69 702.98 849.86 679.99 874.74 648.85 796.24 610.82 673.71 573.22 585.62 530.03 582.85 484.46 654.09 443.38 754.79 406.12 819.8 379.05 818.09 365.6 752.99 369.98 653.36 394.8 557.91 431.51 487.77 479.2 458.52 526.41 461.94 555.07 491.22 558.43 526.13 528.07 553.31 466.08 578.02 384.31 587.08 303.61 582.3 247.35 574.18 233.63 557.38 270.12 534.39 343.02 511.4 428.13 483.31 498.16 448.08 534.05 409.5 529.6 358.62 492.45 294.07 432.77 227.05 373.28 154.28 330.03 89.57 308.04 50.71 315.3 46.96 346.97 86.97 397.58 152.29 458.23 224.66 519.79 265.83 581.82 243.61 636.12 158 681.2 40.44 721.63 -47.65 754.66 -57.98 782.45 21.21 808.45 134.86 832.42 208.73 855.41 183.9 912.75 32.95 926.98 228.07 892.16 131.24 866.03 49.71 838.38 10.2 817.9 23.97 816.37 83.63 836.36 168.09 882.29 252.37 949.48 328.63 1029.58 382.13 1106.12 415.27 1160.12 433.33 1177.64 442.46 1150.63 451.38 1089.47 456.86 1009.02 469.58 936.12 492.57Q936.12 492.57 936.12 492.57" opacity="0.41"></path><path d="M825.12 258.3C787.15 288.95 824.57 330.52 901.77 397.34 985.12 480.53 1024.13 593.9 1012.46 691.61 963.3 712.87 893.3 632.98 827.39 505.41 759 472.6 706.87 585.77 676.22 738.86 642.43 675.17 678.44 516.81 698.5 649.07 670 681.9 598.48 640.41 492.67 572.31 393 488.42 343.15 424.53 381.12 393.87 482.36 363.22 589.62 368.72 649.91 399.49 646.19 414.46 599.14 408.12 546.42 335.11 486.06 146.42 520.55 237.38 566.6 294.86 597.25 141.77 624.85 41.02 657.87 96.3 702.39 246.34 769.45 358.74 860.38 377.66 953.27 320.12 1032.83 254.59 1059.02 224.52 1021.2 210.81 926.36 227.65 825.12 258.3Q825.12 258.3 825.12 258.3" opacity="0.09"></path></g></svg>